<svg xmlns="http://www.w3.org/2000/svg" xmlns:xlink="http://www.w3.org/1999/xlink" width="1080" zoomAndPan="magnify" viewBox="0 0 810 809.999993" height="1080" preserveAspectRatio="xMidYMid meet" version="1.0"><defs><g/><clipPath id="142fce514f"><path d="M 307.410156 178.011719 L 502.410156 178.011719 L 502.410156 373.011719 L 307.410156 373.011719 Z M 307.410156 178.011719 " clip-rule="nonzero"/></clipPath></defs><rect x="-81" width="972" fill="#ffffff" y="-80.999999" height="971.999992" fill-opacity="1"/><rect x="-81" width="972" fill="#1e295b" y="-80.999999" height="971.999992" fill-opacity="1"/><g fill="#ffffff" fill-opacity="1"><g transform="translate(259.349698, 665.932161)"><g><path d="M 23.203125 -524.578125 L 184.421875 -524.578125 C 210.078125 -524.578125 229.925781 -518.773438 243.96875 -507.171875 C 258.007812 -495.566406 267.472656 -479.28125 272.359375 -458.3125 C 277.242188 -437.351562 279.6875 -410.585938 279.6875 -378.015625 C 279.6875 -348.296875 275.816406 -325.085938 268.078125 -308.390625 C 260.347656 -291.703125 246.914062 -280.101562 227.78125 -273.59375 C 243.664062 -270.332031 255.171875 -262.390625 262.296875 -249.765625 C 269.421875 -237.148438 272.984375 -220.050781 272.984375 -198.46875 L 271.75 0 L 169.15625 0 L 169.15625 -205.1875 C 169.15625 -219.84375 166.304688 -229.207031 160.609375 -233.28125 C 154.910156 -237.351562 144.53125 -239.390625 129.46875 -239.390625 L 129.46875 0 L 23.203125 0 Z M 155.109375 -330.375 C 169.765625 -330.375 177.09375 -346.253906 177.09375 -378.015625 C 177.09375 -391.859375 176.484375 -402.238281 175.265625 -409.15625 C 174.046875 -416.082031 171.804688 -420.867188 168.546875 -423.515625 C 165.296875 -426.160156 160.613281 -427.484375 154.5 -427.484375 L 130.078125 -427.484375 L 130.078125 -330.375 Z M 155.109375 -330.375 "/></g></g></g><g clip-path="url(#142fce514f)"><path fill="#1e295b" d="M 404.996094 178.003906 C 458.890625 178.003906 502.585938 221.695312 502.585938 275.59375 C 502.585938 329.492188 458.890625 373.183594 404.996094 373.183594 C 351.097656 373.183594 307.40625 329.492188 307.40625 275.59375 C 307.40625 221.695312 351.097656 178.003906 404.996094 178.003906 " fill-opacity="1" fill-rule="nonzero"/></g><path fill="#f0a71c" d="M 412.332031 275.59375 L 469.046875 316.109375 L 469.046875 235.082031 Z M 473.308594 328.652344 C 472.433594 328.652344 471.566406 328.382812 470.832031 327.855469 L 402.519531 279.0625 C 401.398438 278.261719 400.734375 276.96875 400.734375 275.59375 C 400.734375 274.21875 401.398438 272.925781 402.519531 272.125 L 470.832031 223.332031 C 472.128906 222.402344 473.839844 222.28125 475.257812 223.007812 C 476.679688 223.738281 477.570312 225.203125 477.570312 226.800781 L 477.570312 324.390625 C 477.570312 325.984375 476.679688 327.449219 475.257812 328.179688 C 474.644531 328.496094 473.976562 328.652344 473.308594 328.652344 " fill-opacity="1" fill-rule="nonzero"/><path fill="#f5f5f5" d="M 326.9375 275.59375 L 383.65625 316.109375 L 383.65625 235.082031 Z M 387.917969 328.652344 C 387.046875 328.652344 386.179688 328.382812 385.441406 327.855469 L 317.128906 279.0625 C 316.007812 278.261719 315.34375 276.96875 315.34375 275.59375 C 315.34375 274.21875 316.007812 272.925781 317.128906 272.125 L 385.441406 223.332031 C 386.742188 222.402344 388.449219 222.28125 389.867188 223.007812 C 391.289062 223.738281 392.179688 225.203125 392.179688 226.800781 L 392.179688 324.390625 C 392.179688 325.984375 391.289062 327.449219 389.867188 328.179688 C 389.253906 328.496094 388.585938 328.652344 387.917969 328.652344 " fill-opacity="1" fill-rule="nonzero"/></svg>